<svg xmlns="http://www.w3.org/2000/svg" xmlns:xlink="http://www.w3.org/1999/xlink" id="Layer_1" x="0px" y="0px" width="5211.199px" height="1807px" viewBox="0 0 5211.199 1807" xml:space="preserve">
<g>
	<ellipse fill="#F60C01" cx="175.639" cy="193.4" rx="160.323" ry="152.522"></ellipse>
	<path fill="#F60C01" d="M4074.08,1523.014c-13.964,2.016-26.497,3.043-36.144,3.15c-84.863,0.944-171.178-14.296-255.954-19.958   c-207.629-13.865-414.706-34.13-622.56-45.153c-194.01-10.289-388.548-15.42-582.809-11.135   c-191.219,4.218-382.768,10.881-573.625,23.51c-188.364,12.464-377.401,26.079-564.672,50.214   c-176.57,22.756-351.093,57.779-524.337,98.468c-17.968,4.22-36.763,5.887-54.328,11.736   c-22.645,7.544-55.198,13.281-70.292,32.369c-16.746,21.177-19.388,44.093-45.006,58.64   c-27.746,15.755-65.151,20.636-96.014,27.239c-67.501,14.442-138.662,16.505-207.377,11.71   c-106.458-7.43-305.701-65.37-210.578-205.805c0.556-0.82,1.331-1.643,2.198-2.08c17.036-8.573,34.191-16.914,51.102-25.724   c4.956-2.582,8.899-7.146,13.897-9.615c58.884-29.078,119.466-44.182,181.465-64.746c50.873-16.874,101.916-33.241,153.237-48.704   c106.047-31.952,213.277-59.872,321.614-82.927c230.508-49.053,465.048-76.503,699.934-93.506   c239.382-17.328,479.512-24.453,719.48-26.306c242.056-1.869,484.259,2.002,725.988,15.164   c239.053,13.016,477.112,36.933,714.86,64.643c82.768,9.647,161.048,21.831,242.195,42.065   c47.224,11.775,102.988,26.548,137.416,63.492C4269.802,1471.339,4150.498,1511.982,4074.08,1523.014z"></path>
	<path fill="#FFFFFF" d="M1119.719,590.589c0-123.177,0.162-246.354-0.267-369.53c-0.04-11.497-2.627-23.366-6.166-34.377   c-4.618-14.367-19.291-15.791-31.146-20.56c-12.053-4.848-27.62-4.749-33.228-19.39c-3.505-9.152-4.633-19.316-5.85-29.147   c-0.214-1.726,4.111-4.81,6.876-5.881c2.655-1.027,6.006-0.269,9.052-0.269c162.769-0.005,325.543,0.594,488.306-0.418   c42.526-0.264,85.263-3.095,127.188-11.934c3.436-0.724,6.419-3.381,9.783-4.707c9.256-3.647,13.367-0.04,13.327,9.856   c-0.219,53.348,0.004,106.697-0.15,160.045c-0.057,19.944-0.411,39.902-1.456,59.811c-0.15,2.858-4.912,7.752-7.628,7.814   c-13.615,0.308-27.456,0.515-40.814-1.69c-7.179-1.185-16.557-5.666-19.698-11.489c-8.43-15.628-14.006-32.791-20.771-49.322   c-6.878-16.806-12.535-34.278-21.113-50.171c-7.97-14.766-20.18-27.198-36.618-32.686c-14.072-4.698-28.931-9.428-43.536-9.742   c-74.684-1.605-149.399-1.819-224.103-2.438c-19.9-0.165-19.901-0.034-19.901,20.082c0,108.964,0.113,217.929-0.197,326.892   c-0.027,9.524,2.177,12.871,12.267,12.655c31.457-0.672,62.961,0.463,94.399-0.572c22.628-0.745,45.549-2.188,67.027-10.352   c13.207-5.02,20.979-16.475,27.354-28.545c6.066-11.484,11.311-23.412,17.6-34.767c5.098-9.205,13.42-13.428,24.192-13.462   c9.748-0.031,19.486-1.229,29.24-1.505c7.348-0.208,10.607,3.42,10.631,11.182c0.194,62.58,0.714,125.159,1.03,187.739   c0.068,13.496,0.392,27.049-0.673,40.474c-0.797,10.045-5.938,12.715-15.743,11.679c-5.888-0.622-11.969-0.479-17.861,0.203   c-13.814,1.598-30.3-9.42-36.078-23.103c-6.976-16.519-13.498-33.586-23.153-48.518c-9.42-14.569-26.16-22.247-42.864-23.237   c-45.755-2.712-91.651-2.989-137.476-4.637c-8.922-0.321-9.795,4.048-9.782,11.148c0.139,77.493,0.087,154.986,0.086,232.479   c0,40.269-0.512,80.549,0.34,120.801c0.226,10.688,4.264,21.399,7.373,31.856c0.913,3.069,4.169,6.488,7.178,7.706   c12.916,5.227,26.418,9.066,39.127,14.715c5.871,2.61,12.909,7.253,14.989,12.674c3.361,8.761,3.79,18.905,4.076,28.505   c0.211,7.118-5.626,9.232-12.004,9.244c-12.859,0.023-25.718,0.013-38.577,0.012c-75.124-0.008-150.248-0.01-225.373-0.035   c-13.683-0.005-15.131-1.296-14.379-15.34c0.368-6.86,1.185-13.923,3.279-20.418c5.32-16.498,21.782-17.186,34.434-20.289   c32.115-7.875,35.757-19.775,36.884-47.507c1.921-47.298,0.561-94.73,0.565-142.106   C1119.724,743.541,1119.719,667.065,1119.719,590.589z"></path>
	<path fill="#FFFFFF" d="M2750.085,476.301c5.707-3.809,11.44-7.049,16.509-11.117c25.211-20.229,52.619-36.986,82.943-47.901   c29.27-10.535,59.676-16.009,91.052-18.166c30.228-2.078,60.032-0.004,89.32,5.115c47.723,8.341,89.575,29.264,118.105,70.189   c10.297,14.77,19.427,31.319,24.586,48.416c4.547,15.066,3.691,32.025,3.723,48.151c0.25,125.877,0.021,251.755,0.33,377.631   c0.029,11.961,1.964,24.088,4.579,35.787c1.025,4.588,5.639,9.332,9.872,12.056c10.639,6.847,21.698,12.707,35.247,12.661   c10.429-0.035,20.661,13.406,20.992,28.325c0.702,31.584,2.11,28.313-25.005,28.295c-79.181-0.05-158.362-0.005-237.542-0.003   c-13.754,0-15.505-1.642-15.334-15.928c0.118-9.866-3.056-21.116,6.127-28.368c6.709-5.297,14.832-11.227,22.801-12.006   c17.375-1.7,32.174-7.33,42.608-21.006c3.836-5.028,5.252-13.026,5.271-19.676c0.328-114.371,0.372-228.744,0.193-343.116   c-0.035-22.605,0.851-45.52-2.435-67.738c-4.986-33.714-20.329-61.58-53.391-77.151c-28.135-13.25-57.369-20.654-88.212-17.702   c-16.578,1.587-32.648,7.896-49.159,10.925c-19.325,3.546-35.265,14.036-50.489,24.875c-14.898,10.607-27.756,24.14-41.087,36.832   c-2.256,2.148-3.347,6.535-3.351,9.889c-0.162,141.104-0.2,282.209-0.033,423.313c0.015,12.573,7.465,30.16,24.285,34.104   c11.178,2.622,22.054,6.507,33.152,9.505c12.626,3.411,14.956,14.215,15.337,24.2c1.295,33.881,1.631,28.995-26.076,29.013   c-77.488,0.052-154.977,0.019-232.465,0.012c-12.164-0.001-13.315-1.194-13.322-13.429c-0.002-4.736-0.148-9.471-0.117-14.206   c0.104-15.95,9.786-24.887,25.393-29.72c13.024-4.033,26.786-10.19,36.301-19.439c6.155-5.983,7.167-19.224,7.208-29.225   c0.466-111.325,0.293-222.653,0.293-333.98c0-35.53,0.356-71.065-0.199-106.586c-0.188-11.984-1.963-24.76-12.392-32.585   c-6.988-5.243-15.863-8.019-23.992-11.68c-7.549-3.4-15.664-5.77-22.74-9.935c-8.79-5.173-10.021-14.16-9.899-23.845   c0.316-24.928,0.059-24.816,25.094-25.263c28.736-0.513,57.481-0.935,86.199-2.01c20.821-0.779,41.614-2.43,62.401-3.936   c12.64-0.916,17.234,3.021,17.297,15.876C2750.146,441.821,2750.085,457.888,2750.085,476.301z"></path>
	<path fill="#FFFFFF" d="M3741.365,720.851c-64.616,0-129.232,0.011-193.847-0.007c-16.875-0.005-33.751-0.045-50.626-0.171   c-7.649-0.057-11.93,1.661-12.308,11.184c-1.016,25.6-1.305,51.123,4.802,76.1c6.228,25.471,11.235,51.659,21.208,75.694   c13.759,33.16,34.383,62.442,62.081,86.403c20.58,17.803,43.956,29.483,69.073,39.414c22.415,8.862,45.566,13.458,68.928,14.857   c18.781,1.125,38.062-2.348,56.822-5.536c24.553-4.172,46.805-14.852,67.95-27.894c28.936-17.846,52.176-41.951,73.868-67.596   c10.011-11.836,12.505-12.651,24.171-3.139c8.047,6.561,16.132,13.31,25.069,18.471c7.315,4.224,7.114,8.344,2.507,13.511   c-14.525,16.29-28.824,32.823-44.08,48.41c-24.066,24.587-51.568,44.982-82.571,59.84c-13.556,6.497-28.751,9.732-43.385,13.783   c-16.205,4.486-32.453,10.568-48.983,11.749c-29.224,2.088-58.804,2.776-87.991,0.667c-23.739-1.715-47.26-7.772-70.603-13.107   c-11.553-2.641-23.199-6.695-33.555-12.382c-24.212-13.297-48.788-26.409-71.147-42.476c-27.666-19.88-51.558-44.554-71.143-72.521   c-20.449-29.202-36.618-60.588-47.168-95.217c-11.963-39.265-18.302-79.125-16.914-119.716   c0.932-27.273,5.879-54.565,10.939-81.489c3.529-18.777,8.609-37.648,15.953-55.243c17.077-40.914,41.2-77.287,73.48-108.324   c25.45-24.47,53.776-43.891,85.936-58.322c31.569-14.165,63.961-24.339,98.76-26.177c12.343-0.652,24.78-4.507,36.895-3.509   c28.334,2.335,56.51,6.634,84.729,10.307c25.648,3.338,48.17,15.757,69.615,28.377c36.35,21.392,64.892,51.607,87.621,87.551   c15.53,24.559,26.361,51.006,34.757,78.368c5.24,17.076,7.304,35.231,9.693,53.049c2.268,16.914,3.516,33.997,4.437,51.048   c0.735,13.595,0.169,13.754-13.018,13.759c-67.318,0.029-134.635,0.014-201.953,0.014   C3741.365,720.67,3741.365,720.76,3741.365,720.851z M3664.824,656.204c0,0.018,0,0.037,0,0.055   c45.296,0,90.592-0.146,135.886,0.133c8.285,0.051,11.006-3.35,10.237-10.972c-2.337-23.15-2.57-46.74-7.367-69.365   c-9.939-46.876-33.91-83.452-81.078-101.864c-37.822-14.764-75.841-15.831-113.849-3.741   c-15.332,4.877-30.494,12.893-43.251,22.707c-25.919,19.94-44.556,46.57-55.136,77.351c-8.493,24.708-13.212,50.724-19.364,76.217   c-1.646,6.82,1.466,10.064,8.71,9.82c10.769-0.362,21.553-0.321,32.331-0.328C3576.237,656.187,3620.531,656.204,3664.824,656.204z   "></path>
	<path fill="#FFFFFF" d="M4917.104,1084.773c-25.66-1.641-51.302-0.981-76.008-5.47c-27.979-5.084-55.231-14.41-82.588-22.597   c-22.525-6.742-42.246-18.914-61.003-33.027c-26.577-19.997-42.934-59.159-34.834-86.618c6.9-23.392,23.665-37.576,44.675-48.474   c18.712-9.705,39.117-8.593,57.134-4.441c23.79,5.482,44.974,19.693,54.799,44.366c2.527,6.347,1.571,14.518,0.683,21.661   c-0.808,6.493-3.955,12.661-5.624,19.088c-5.717,22.01,5.736,43.817,26.872,51.832c36.157,13.711,72.9,15.486,110.686,7.421   c32.517-6.94,61.154-20.06,85.204-43.626c15.266-14.958,21.687-33.847,25.09-53.317c4.781-27.358,0.229-54.441-20.002-74.799   c-13.483-13.567-30.191-24.312-46.608-34.455c-12.313-7.607-26.219-12.886-39.86-18.024c-13.656-5.143-27.934-8.612-41.813-13.196   c-18.916-6.248-37.543-13.419-56.599-19.185c-29.5-8.925-57.268-21.247-83.103-38.13c-33.45-21.86-59.508-49.981-73.391-87.825   c-4.291-11.695-6.192-24.544-7.382-37.037c-2.147-22.534-0.458-45.19,6.255-66.767c6.244-20.069,16.894-38.432,30.641-54.414   c17.604-20.467,38.352-37.52,62.3-50.137c14.978-7.891,30.199-15.733,46.105-21.347c20.49-7.232,41.674-12.611,62.77-17.958   c8.063-2.044,16.714-2.541,25.083-2.452c28.692,0.305,57.566-0.639,86.021,2.286c39.072,4.017,76.49,15.427,109.445,37.714   c19.19,12.978,30.495,31.291,36.785,54.395c5.467,20.082,2.691,37.717-7.589,53.621c-13.203,20.426-33.778,30.77-58.245,32.468   c-22.382,1.553-42.593-2.404-61.323-16.92c-20.584-15.953-26.963-35.142-23.246-59.9c1.414-9.413,1.247-19.715-1.193-28.81   c-1.47-5.48-7.891-11.253-13.488-13.722c-22.833-10.074-46.759-11.8-71.736-9.382c-21.972,2.127-41.342,9.678-59.044,21.563   c-27.957,18.77-47.264,44.376-45.376,79.257c1.517,28.021,13.529,52.162,38.603,68.782c25.921,17.181,54.831,27.079,83.529,37.573   c29.924,10.942,60.094,21.275,90.455,30.939c29.67,9.445,57.516,22.67,83.09,40.055c33.675,22.892,59.596,52.148,73.88,91.547   c10.046,27.71,10.25,56.239,6.467,83.64c-4.172,30.231-17.798,58.548-37.935,82.69c-28.938,34.694-65.175,59.939-106.606,76.51   c-31.168,12.467-63.872,21.288-98.111,21.904C4939.56,1082.26,4928.179,1083.845,4917.104,1084.773z"></path>
	<path fill="#FFFFFF" d="M4312.664,1085.524c-33.161-2.281-58.052-1.816-82.068-6.175c-32.963-5.983-65.728-13.61-96.611-27.988   c-19.299-8.985-37.36-19.199-52.546-34.075c-16.643-16.304-28.717-35.782-31.172-59.005c-2.466-23.315,9.361-40.974,26.236-56.945   c22.848-21.623,50.69-22.282,77.262-17.257c22.758,4.304,43.977,18.371,53.948,41.17c3.901,8.919,2.593,22.142-0.8,31.846   c-10.086,28.851-5.287,52.041,27.776,64.652c26.49,10.104,53.276,13.476,80.573,11.105c37.677-3.273,73.733-13.719,102.707-39.513   c27.787-24.737,40.787-56.798,35.063-93.86c-3.618-23.426-17.145-42.682-35.857-57.708c-21.399-17.184-46.516-27.444-71.673-37.284   c-19.362-7.573-39.313-13.658-59.077-20.177c-19.739-6.511-39.821-12.06-59.311-19.228   c-44.666-16.427-84.907-39.917-114.583-78.189c-25.936-33.448-35.634-72.623-29.831-113.607   c6.639-46.89,28.887-86.341,68.323-114.943c24.802-17.988,51.329-32.354,79.932-43.211c33.783-12.824,68.554-20.026,104.756-19.395   c21.924,0.382,43.977-0.033,65.725,2.253c28.163,2.96,55.519,10.109,81.463,22.13c23.458,10.868,45.146,24.087,57.843,47.447   c21.168,38.946,13.659,83.951-33.838,102.712c-28.284,11.172-56.477,10.676-81.041-8.026   c-25.598-19.49-35.339-29.784-25.841-64.726c4.056-14.922-0.821-34.029-20.425-41.92c-26.784-10.78-53.447-10.525-80.915-5.751   c-33.902,5.892-59.689,23.915-78.364,52.379c-10.246,15.617-12.683,32.459-11.031,51.421c4.192,48.12,36.695,68.797,76.36,83.727   c12.092,4.552,24.021,9.555,36.194,13.87c21.822,7.735,43.727,15.242,65.679,22.599c47.36,15.872,94.088,33.031,133.43,65.236   c29.389,24.059,50.766,54.05,59.634,90.979c7.169,29.855,6.527,60.281-2.289,90.413c-10.284,35.154-30.319,62.994-57.168,87.535   c-24.673,22.552-52.502,39.467-82.651,52.548c-15.964,6.926-33.312,11.514-50.494,14.587   C4360.327,1080.091,4332.296,1082.907,4312.664,1085.524z"></path>
	<path fill="#FFFFFF" d="M2222.217,725.32c0-65.634-0.045-131.268,0.072-196.901c0.011-6.354,0.78-12.739,1.633-19.051   c1.507-11.15-2.645-16.244-13.769-16.252c-23.344-0.016-46.693-0.283-70.029,0.142c-9.334,0.17-13.218-4.5-13.174-12.662   c0.05-9.377,0.131-19.018,2.279-28.05c2.32-9.756,8.32-16.354,19.749-18.712c14.804-3.055,29.457-7.859,43.428-13.697   c21.045-8.793,26.826-27.841,27.594-48.375c1.286-34.402,1.523-68.842,2.223-103.266c0.238-11.693,1.751-23.288,12.421-30.23   c5.26-3.422,11.946-5.785,18.195-6.361c29.167-2.688,58.414-4.497,87.617-6.816c9.918-0.788,12.259,3.223,12.224,13.049   c-0.171,48.984,0.679,97.971,1.006,146.958c0.061,9.117-0.483,18.246-0.997,27.355c-0.701,12.439,2.37,15.701,14.685,15.496   c25.665-0.428,51.332-0.783,76.999-1.113c18.797-0.241,37.611-0.839,56.379-0.176c3.389,0.12,9.238,5.421,9.43,8.603   c0.976,16.176,0.568,32.444,0.428,48.677c-0.072,8.39-5.787,9.253-12.555,9.234c-43.304-0.124-86.609-0.063-129.914-0.063   c-15.02,0-15.123,0.002-15.141,14.819c-0.141,112.313-0.348,224.625-0.277,336.938c0.019,30.059-0.341,60.219,2.043,90.128   c0.978,12.272,7.804,24.495,13.671,35.862c8.263,16.009,22.87,25.755,38.951,32.742c6.868,2.984,14.692,4.265,22.218,5.153   c28.267,3.335,54.626-2.97,79.558-16.422c6.994-3.774,13.057-5.448,16.717,5.722c2.718,8.295,10.017,14.987,14.181,22.964   c1.502,2.879,1.249,9.636-0.639,10.857c-16.105,10.419-31.93,22.004-49.484,29.257c-21.042,8.693-43.355,15.505-65.766,19.326   c-19.615,3.344-40.191,2.557-60.223,1.444c-14.812-0.823-29.487-4.84-44.124-7.908c-18.802-3.941-35.102-13.684-48.504-26.641   c-13.991-13.526-29.891-26.326-35.722-46.328c-3.914-13.423-8.197-26.838-10.655-40.554c-2.125-11.855-2.575-24.127-2.617-36.218   C2222.096,857.942,2222.217,791.631,2222.217,725.32z"></path>
	<path fill="#FFFFFF" d="M1982.594,695.558c0,88.986-0.003,177.971,0.002,266.957c0.001,24.921,16.088,43.177,40.812,46.349   c15.215,1.952,28.104,16.078,28.173,31.43c0.128,28.586,2.336,25.411-24.448,25.421c-77.143,0.029-154.287-0.183-231.428,0.252   c-10.331,0.058-13.287-3.607-12.155-12.933c1.189-9.791-2.129-19.901,4.368-29.344c5.936-8.628,12.831-13.872,23.416-14.927   c22.971-2.29,41.356-23.093,41.357-46.169c0.002-147.858,0.047-295.717-0.044-443.575c-0.016-25.753-13.817-40.372-38.672-44.154   c-18.179-2.766-30.277-16.499-30.319-34.971c-0.055-23.882-0.044-23.431,23.949-24.009c50.655-1.219,101.306-2.708,151.94-4.596   c23.071-0.86,23.05-1.408,23.05,21.372C1982.594,520.293,1982.594,607.926,1982.594,695.558z"></path>
	<path fill="#FFFFFF" d="M264.916,677.86c0.011,79.157-0.116,158.315,0.102,237.471c0.053,19.245,1.038,38.496,1.984,57.726   c0.6,12.191,15.73,25.543,30.881,29.606c27.275,7.314,35.581,8.657,37.589,41.809c1.137,18.757,0.607,17.242-15.374,17.215   c-80.848-0.14-161.697-0.174-242.545,0.144c-8.833,0.035-12.571-2.472-11.67-11.429c0.637-6.34,0.106-12.83,1.094-19.096   c2.695-17.099,16.34-22.885,30.192-28.537c10.03-4.092,21.105-7.232,29.208-13.86c5.216-4.266,8.058-14.027,8.249-21.421   c1.249-48.298,1.854-96.621,1.97-144.938c0.237-98.436,0.13-196.874-0.136-295.31c-0.028-10.281-0.672-20.961-3.488-30.748   c-5.136-17.85-21.545-23.509-36.994-27.307c-16.081-3.953-27.984-13.901-29.989-30.236c-0.082-0.668-0.011-1.352-0.039-2.028   c-1.096-26.123-0.228-26.802,26.385-27.062c52.401-0.514,104.799-1.261,157.198-1.96c15.61-0.208,15.416-0.281,15.404,15.239   C264.87,508.044,264.905,592.952,264.916,677.86z"></path>
	<path fill="#FFFFFF" d="M1810.042,229.956c-0.257-43.372,39.022-81.201,83.18-82.061c49.395-0.963,86.029,43.284,84.858,82.848   c-1.538,51.998-39.309,84.748-84.98,85.052C1851.39,316.072,1809.314,275.003,1810.042,229.956z"></path>
	<rect x="433.45" y="552.025" fill="#FFFFFF" width="422.592" height="123.859"></rect>
	<ellipse fill="#FFFFFF" cx="4713.93" cy="1484.121" rx="151.367" ry="144.002"></ellipse>
</g>
</svg>